<svg id="visual" viewBox="0 0 1960 1040" width="1960" height="1040" xmlns="http://www.w3.org/2000/svg" xmlns:xlink="http://www.w3.org/1999/xlink" version="1.1"><rect x="0" y="0" width="1960" height="1040" fill="#001220"></rect><path d="M0 479L29.7 481.2C59.3 483.3 118.7 487.7 178 502C237.3 516.3 296.7 540.7 356.2 541.7C415.7 542.7 475.3 520.3 534.8 518.7C594.3 517 653.7 536 713 540.7C772.3 545.3 831.7 535.7 891 546.7C950.3 557.7 1009.7 589.3 1069 611.3C1128.3 633.3 1187.7 645.7 1247 634.2C1306.3 622.7 1365.7 587.3 1425.2 552.8C1484.7 518.3 1544.3 484.7 1603.8 491.8C1663.3 499 1722.7 547 1782 556.8C1841.3 566.7 1900.7 538.3 1930.3 524.2L1960 510L1960 1041L1930.3 1041C1900.7 1041 1841.3 1041 1782 1041C1722.7 1041 1663.3 1041 1603.8 1041C1544.3 1041 1484.7 1041 1425.2 1041C1365.7 1041 1306.3 1041 1247 1041C1187.7 1041 1128.3 1041 1069 1041C1009.7 1041 950.3 1041 891 1041C831.7 1041 772.3 1041 713 1041C653.7 1041 594.3 1041 534.8 1041C475.3 1041 415.7 1041 356.2 1041C296.7 1041 237.3 1041 178 1041C118.7 1041 59.3 1041 29.7 1041L0 1041Z" fill="#f7770f"></path><path d="M0 605L29.7 627.2C59.3 649.3 118.7 693.7 178 683.8C237.3 674 296.7 610 356.2 592.7C415.7 575.3 475.3 604.7 534.8 608.3C594.3 612 653.7 590 713 584.3C772.3 578.7 831.7 589.3 891 586.8C950.3 584.3 1009.7 568.7 1069 567.8C1128.3 567 1187.7 581 1247 594.7C1306.3 608.3 1365.7 621.7 1425.2 632.2C1484.7 642.7 1544.3 650.3 1603.8 665.5C1663.3 680.7 1722.7 703.3 1782 692.2C1841.3 681 1900.7 636 1930.3 613.5L1960 591L1960 1041L1930.3 1041C1900.7 1041 1841.3 1041 1782 1041C1722.7 1041 1663.3 1041 1603.8 1041C1544.3 1041 1484.7 1041 1425.2 1041C1365.7 1041 1306.3 1041 1247 1041C1187.7 1041 1128.3 1041 1069 1041C1009.7 1041 950.3 1041 891 1041C831.7 1041 772.3 1041 713 1041C653.7 1041 594.3 1041 534.8 1041C475.3 1041 415.7 1041 356.2 1041C296.7 1041 237.3 1041 178 1041C118.7 1041 59.3 1041 29.7 1041L0 1041Z" fill="#f55c31"></path><path d="M0 661L29.7 672.7C59.3 684.3 118.7 707.7 178 716.7C237.3 725.7 296.7 720.3 356.2 726.2C415.7 732 475.3 749 534.8 743.3C594.3 737.7 653.7 709.3 713 699.3C772.3 689.3 831.7 697.7 891 709C950.3 720.3 1009.7 734.7 1069 737.8C1128.3 741 1187.7 733 1247 717.8C1306.3 702.7 1365.7 680.3 1425.2 688.8C1484.7 697.3 1544.3 736.7 1603.8 746.2C1663.3 755.7 1722.7 735.3 1782 721.7C1841.3 708 1900.7 701 1930.3 697.5L1960 694L1960 1041L1930.3 1041C1900.7 1041 1841.3 1041 1782 1041C1722.7 1041 1663.3 1041 1603.8 1041C1544.3 1041 1484.7 1041 1425.2 1041C1365.7 1041 1306.3 1041 1247 1041C1187.7 1041 1128.3 1041 1069 1041C1009.7 1041 950.3 1041 891 1041C831.7 1041 772.3 1041 713 1041C653.7 1041 594.3 1041 534.8 1041C475.3 1041 415.7 1041 356.2 1041C296.7 1041 237.3 1041 178 1041C118.7 1041 59.3 1041 29.7 1041L0 1041Z" fill="#ec4347"></path><path d="M0 876L29.7 874.3C59.3 872.7 118.7 869.3 178 873.2C237.3 877 296.7 888 356.2 886.7C415.7 885.3 475.3 871.7 534.8 850.7C594.3 829.7 653.7 801.3 713 792C772.3 782.7 831.7 792.3 891 801.2C950.3 810 1009.7 818 1069 824.5C1128.3 831 1187.7 836 1247 825.2C1306.3 814.3 1365.7 787.7 1425.2 794.8C1484.7 802 1544.3 843 1603.8 854.7C1663.3 866.3 1722.7 848.7 1782 829.8C1841.3 811 1900.7 791 1930.3 781L1960 771L1960 1041L1930.3 1041C1900.7 1041 1841.3 1041 1782 1041C1722.7 1041 1663.3 1041 1603.8 1041C1544.3 1041 1484.7 1041 1425.2 1041C1365.7 1041 1306.3 1041 1247 1041C1187.7 1041 1128.3 1041 1069 1041C1009.7 1041 950.3 1041 891 1041C831.7 1041 772.3 1041 713 1041C653.7 1041 594.3 1041 534.8 1041C475.3 1041 415.7 1041 356.2 1041C296.7 1041 237.3 1041 178 1041C118.7 1041 59.3 1041 29.7 1041L0 1041Z" fill="#dc2f59"></path><path d="M0 942L29.7 936C59.3 930 118.7 918 178 907.7C237.3 897.3 296.7 888.7 356.2 885.5C415.7 882.3 475.3 884.7 534.8 882.8C594.3 881 653.7 875 713 886.2C772.3 897.3 831.7 925.7 891 927.3C950.3 929 1009.7 904 1069 890.7C1128.3 877.3 1187.7 875.7 1247 886.8C1306.3 898 1365.7 922 1425.2 924.3C1484.7 926.7 1544.3 907.3 1603.8 905.7C1663.3 904 1722.7 920 1782 929.8C1841.3 939.7 1900.7 943.3 1930.3 945.2L1960 947L1960 1041L1930.3 1041C1900.7 1041 1841.3 1041 1782 1041C1722.7 1041 1663.3 1041 1603.8 1041C1544.3 1041 1484.7 1041 1425.2 1041C1365.7 1041 1306.3 1041 1247 1041C1187.7 1041 1128.3 1041 1069 1041C1009.7 1041 950.3 1041 891 1041C831.7 1041 772.3 1041 713 1041C653.7 1041 594.3 1041 534.8 1041C475.3 1041 415.7 1041 356.2 1041C296.7 1041 237.3 1041 178 1041C118.7 1041 59.3 1041 29.7 1041L0 1041Z" fill="#c62368"></path></svg>