<svg id="visual" viewBox="0 0 900 600" width="900" height="600" xmlns="http://www.w3.org/2000/svg" xmlns:xlink="http://www.w3.org/1999/xlink" version="1.1"><rect x="0" y="0" width="900" height="600" fill="#001220"></rect><path d="M0 435L21.5 421.3C43 407.7 86 380.3 128.8 372C171.7 363.7 214.3 374.3 257.2 389.5C300 404.7 343 424.3 385.8 434.7C428.7 445 471.3 446 514.2 434.7C557 423.3 600 399.7 642.8 392.5C685.7 385.3 728.3 394.7 771.2 398.3C814 402 857 400 878.5 399L900 398L900 601L878.5 601C857 601 814 601 771.2 601C728.3 601 685.7 601 642.8 601C600 601 557 601 514.2 601C471.3 601 428.7 601 385.8 601C343 601 300 601 257.2 601C214.3 601 171.7 601 128.8 601C86 601 43 601 21.5 601L0 601Z" fill="#895936"></path><path d="M0 437L21.5 439.3C43 441.7 86 446.3 128.8 441.5C171.7 436.7 214.3 422.3 257.2 418C300 413.7 343 419.3 385.8 428C428.7 436.7 471.3 448.3 514.2 449.2C557 450 600 440 642.8 442.3C685.7 444.7 728.3 459.3 771.2 455C814 450.7 857 427.3 878.5 415.7L900 404L900 601L878.5 601C857 601 814 601 771.2 601C728.3 601 685.7 601 642.8 601C600 601 557 601 514.2 601C471.3 601 428.7 601 385.8 601C343 601 300 601 257.2 601C214.3 601 171.7 601 128.8 601C86 601 43 601 21.5 601L0 601Z" fill="#804632"></path><path d="M0 503L21.5 493C43 483 86 463 128.8 454.7C171.7 446.3 214.3 449.7 257.2 461C300 472.3 343 491.7 385.8 492.2C428.7 492.7 471.3 474.3 514.2 464.5C557 454.7 600 453.3 642.8 453.2C685.7 453 728.3 454 771.2 457C814 460 857 465 878.5 467.5L900 470L900 601L878.5 601C857 601 814 601 771.2 601C728.3 601 685.7 601 642.8 601C600 601 557 601 514.2 601C471.3 601 428.7 601 385.8 601C343 601 300 601 257.2 601C214.3 601 171.7 601 128.8 601C86 601 43 601 21.5 601L0 601Z" fill="#743430"></path><path d="M0 517L21.5 519.8C43 522.7 86 528.3 128.8 523.7C171.7 519 214.3 504 257.2 496.8C300 489.7 343 490.3 385.8 496C428.7 501.7 471.3 512.3 514.2 512.7C557 513 600 503 642.8 502.5C685.7 502 728.3 511 771.2 517.7C814 524.3 857 528.7 878.5 530.8L900 533L900 601L878.5 601C857 601 814 601 771.2 601C728.3 601 685.7 601 642.8 601C600 601 557 601 514.2 601C471.3 601 428.7 601 385.8 601C343 601 300 601 257.2 601C214.3 601 171.7 601 128.8 601C86 601 43 601 21.5 601L0 601Z" fill="#65232f"></path><path d="M0 566L21.5 567C43 568 86 570 128.8 568.3C171.7 566.7 214.3 561.3 257.2 555.8C300 550.3 343 544.7 385.8 544.2C428.7 543.7 471.3 548.3 514.2 550.3C557 552.3 600 551.7 642.8 553.5C685.7 555.3 728.3 559.7 771.2 557.2C814 554.7 857 545.3 878.5 540.7L900 536L900 601L878.5 601C857 601 814 601 771.2 601C728.3 601 685.7 601 642.8 601C600 601 557 601 514.2 601C471.3 601 428.7 601 385.8 601C343 601 300 601 257.2 601C214.3 601 171.7 601 128.8 601C86 601 43 601 21.5 601L0 601Z" fill="#54132e"></path></svg>